<mxfile host="app.diagrams.net" agent="Mozilla/5.0 (Macintosh; Intel Mac OS X 10_15_7) AppleWebKit/537.36 (KHTML, like Gecko) Chrome/129.0.0.0 Safari/537.36" version="24.7.4">
  <diagram name="Page-1" id="tXsPsopr5iO7fjE7ntji">
    <mxGraphModel dx="1321" dy="740" grid="1" gridSize="10" guides="1" tooltips="1" connect="1" arrows="1" fold="1" page="1" pageScale="1" pageWidth="850" pageHeight="1100" math="0" shadow="0">
      <root>
        <mxCell id="0" />
        <mxCell id="1" parent="0" />
        <mxCell id="mP72WiI3d0V7A2LHdzo0-1" value="AWS Account" style="html=1;overflow=block;blockSpacing=1;whiteSpace=wrap;fontSize=18.3;fontColor=#232f3e;spacing=0;strokeColor=#232f3e;strokeOpacity=100;fillOpacity=0;rounded=1;absoluteArcSize=1;arcSize=12;fillColor=#ffffff;strokeWidth=2.3;container=1;pointerEvents=0;collapsible=0;recursiveResize=0;lucidId=_YvMQiWvPY6W;" vertex="1" parent="1">
          <mxGeometry x="870" y="210" width="1665" height="990" as="geometry" />
        </mxCell>
        <mxCell id="mP72WiI3d0V7A2LHdzo0-2" value="Region" style="html=1;overflow=block;blockSpacing=1;whiteSpace=wrap;fontSize=18.3;fontColor=#147eba;spacing=0;strokeColor=#147eba;strokeOpacity=100;fillOpacity=0;rounded=1;absoluteArcSize=1;arcSize=12;fillColor=#ffffff;dashed=1;fixDash=1;dashPattern=6 5;strokeWidth=2.3;container=1;pointerEvents=0;collapsible=0;recursiveResize=0;lucidId=9QJM80IVYh6_;" vertex="1" parent="1">
          <mxGeometry x="915" y="255" width="1575" height="900" as="geometry" />
        </mxCell>
        <mxCell id="mP72WiI3d0V7A2LHdzo0-3" value="Virtual Private Cloud (VPC)" style="html=1;overflow=block;blockSpacing=1;whiteSpace=wrap;fontSize=18.3;fontColor=#248814;spacing=0;strokeColor=#248814;strokeOpacity=100;fillOpacity=0;rounded=1;absoluteArcSize=1;arcSize=12;fillColor=#ffffff;strokeWidth=2.3;container=1;pointerEvents=0;collapsible=0;recursiveResize=0;lucidId=TXJMV_QqjrSG;" vertex="1" parent="1">
          <mxGeometry x="960" y="301" width="1484" height="810" as="geometry" />
        </mxCell>
        <mxCell id="mP72WiI3d0V7A2LHdzo0-4" value="Public Subnet" style="html=1;overflow=block;blockSpacing=1;whiteSpace=wrap;fontSize=18.3;fontColor=#248814;spacing=0;strokeColor=none;strokeOpacity=100;fillOpacity=13;rounded=1;absoluteArcSize=1;arcSize=12;fillColor=#248814;strokeWidth=0;container=1;pointerEvents=0;collapsible=0;recursiveResize=0;lucidId=XgKM0bekm8-m;" vertex="1" parent="1">
          <mxGeometry x="1216" y="504" width="1034" height="428" as="geometry" />
        </mxCell>
        <mxCell id="mP72WiI3d0V7A2LHdzo0-5" value="Availability Zone (AZ)" style="html=1;overflow=block;blockSpacing=1;whiteSpace=wrap;fontSize=18.3;fontColor=#147eba;spacing=0;strokeColor=#147eba;strokeOpacity=100;fillOpacity=0;rounded=1;absoluteArcSize=1;arcSize=12;fillColor=#ffffff;dashed=1;fixDash=1;dashPattern=6 5;strokeWidth=2.3;container=1;pointerEvents=0;collapsible=0;recursiveResize=0;lucidId=CyLM2.gjfOU.;" vertex="1" parent="1">
          <mxGeometry x="1186" y="466" width="1094" height="499" as="geometry" />
        </mxCell>
        <mxCell id="mP72WiI3d0V7A2LHdzo0-6" value="EC2 Instance &#xa;(Allora Offchain Worker running Docker)" style="html=1;overflow=block;blockSpacing=1;whiteSpace=wrap;fontSize=18.5;fontColor=#d86613;spacing=0;verticalAlign=top;strokeColor=#d86613;strokeOpacity=100;fillOpacity=100;rounded=1;absoluteArcSize=1;arcSize=12;fillColor=#ffffff;strokeWidth=2.3;container=1;pointerEvents=0;collapsible=0;recursiveResize=0;lucidId=-u2NlGh-AkDf;" vertex="1" parent="1">
          <mxGeometry x="1455" y="573" width="449" height="264" as="geometry" />
        </mxCell>
        <mxCell id="mP72WiI3d0V7A2LHdzo0-7" value="" style="html=1;overflow=block;blockSpacing=1;whiteSpace=wrap;fontSize=13;align=center;spacing=3.8;strokeColor=#unset;rounded=1;absoluteArcSize=1;arcSize=12;fillColor=#unset;strokeWidth=NaN;lucidId=7X7MiWF~K5Hu;" vertex="1" parent="1">
          <mxGeometry x="195" y="540" width="420" height="330" as="geometry" />
        </mxCell>
        <mxCell id="mP72WiI3d0V7A2LHdzo0-8" value="" style="html=1;jettySize=18;whiteSpace=wrap;fontSize=13;strokeColor=#3a414a;strokeOpacity=100;strokeWidth=2.3;rounded=1;arcSize=24;edgeStyle=orthogonalEdgeStyle;startArrow=none;endArrow=block;endFill=1;entryX=-0.003;entryY=0.5;entryPerimeter=0;lucidId=FY7MXUKkzTnU;" edge="1" parent="1" target="mP72WiI3d0V7A2LHdzo0-6">
          <mxGeometry width="100" height="100" relative="1" as="geometry">
            <Array as="points" />
            <mxPoint x="630" y="704" as="sourcePoint" />
          </mxGeometry>
        </mxCell>
        <mxCell id="mP72WiI3d0V7A2LHdzo0-9" value="Request for Inferences" style="text;html=1;resizable=0;labelBackgroundColor=default;align=center;verticalAlign=middle;fontColor=#333333;fontSize=18.3;" vertex="1" parent="mP72WiI3d0V7A2LHdzo0-8">
          <mxGeometry x="-0.7296296296296296" relative="1" as="geometry">
            <mxPoint as="offset" />
          </mxGeometry>
        </mxCell>
        <mxCell id="mP72WiI3d0V7A2LHdzo0-10" value="" style="html=1;jettySize=18;whiteSpace=wrap;fontSize=13;strokeColor=#3a414a;strokeOpacity=100;strokeWidth=2.3;rounded=1;arcSize=24;edgeStyle=orthogonalEdgeStyle;startArrow=none;endArrow=block;endFill=1;lucidId=kj2NyueEfGJ9;" edge="1" parent="1">
          <mxGeometry width="100" height="100" relative="1" as="geometry">
            <Array as="points" />
            <mxPoint x="1455" y="750" as="sourcePoint" />
            <mxPoint x="616" y="749" as="targetPoint" />
          </mxGeometry>
        </mxCell>
        <mxCell id="mP72WiI3d0V7A2LHdzo0-11" value="Response with Inferences" style="text;html=1;resizable=0;labelBackgroundColor=default;align=center;verticalAlign=middle;fontColor=#333333;fontSize=18.3;" vertex="1" parent="mP72WiI3d0V7A2LHdzo0-10">
          <mxGeometry x="0.6843987246741681" relative="1" as="geometry">
            <mxPoint as="offset" />
          </mxGeometry>
        </mxCell>
        <mxCell id="mP72WiI3d0V7A2LHdzo0-12" value="VPC Internet Gateway" style="html=1;overflow=block;blockSpacing=1;whiteSpace=wrap;shape=mxgraph.aws3.internet_gateway;labelPosition=center;verticalLabelPosition=bottom;align=center;verticalAlign=top;pointerEvents=1;fontSize=18.3;fontColor=#3a414a;spacing=3.8;strokeColor=#3a414a;strokeOpacity=100;rounded=1;absoluteArcSize=1;arcSize=12;fillColor=#f58536;strokeWidth=0.8;lucidId=H07MxiphtlWI;" vertex="1" parent="1">
          <mxGeometry x="990" y="661" width="120" height="135" as="geometry" />
        </mxCell>
        <mxCell id="mP72WiI3d0V7A2LHdzo0-13" value="" style="html=1;overflow=block;blockSpacing=1;whiteSpace=wrap;shape=image;fontSize=13;spacing=0;verticalAlign=top;strokeColor=none;strokeOpacity=0;rounded=1;absoluteArcSize=1;arcSize=12;dashed=1;fixDash=1;dashPattern=1 4;strokeWidth=0;image=https://images.lucid.app/images/26d560da-be5f-4e5a-8a1f-d08955e03b65/content;imageAspect=0;lucidId=Nr3NNLmmP2up;" vertex="1" parent="1">
          <mxGeometry x="257" y="615" width="266" height="110" as="geometry" />
        </mxCell>
        <mxCell id="mP72WiI3d0V7A2LHdzo0-14" value="A self-improviing decentralized AI network " style="html=1;overflow=block;blockSpacing=1;whiteSpace=wrap;fontSize=21.7;spacing=3.8;verticalAlign=middle;strokeOpacity=0;fillOpacity=0;rounded=1;absoluteArcSize=1;arcSize=12;fillColor=#000000;strokeWidth=NaN;lucidId=WgfOnQqIrc8R;" vertex="1" parent="1">
          <mxGeometry x="270" y="674" width="255" height="127" as="geometry" />
        </mxCell>
        <mxCell id="mP72WiI3d0V7A2LHdzo0-15" value="Inference Server Endpoint" style="html=1;overflow=block;blockSpacing=1;whiteSpace=wrap;shape=mxgraph.aws3.ec2_compute_container;labelPosition=center;verticalLabelPosition=bottom;align=center;verticalAlign=top;pointerEvents=1;fontSize=20;fontColor=#333333;spacing=3.8;strokeColor=none;strokeOpacity=100;rounded=1;absoluteArcSize=1;arcSize=12;fillColor=#f58536;dashed=1;fixDash=1;dashPattern=1 4;strokeWidth=0;lucidId=ruYOFB6uyYjL;" vertex="1" parent="1">
          <mxGeometry x="1605" y="683" width="135" height="90" as="geometry" />
        </mxCell>
        <mxCell id="mP72WiI3d0V7A2LHdzo0-16" value="" style="html=1;overflow=block;blockSpacing=1;whiteSpace=wrap;shape=mxgraph.aws3.bucket;labelPosition=center;verticalLabelPosition=bottom;align=center;verticalAlign=top;pointerEvents=1;fontSize=13;spacing=3.8;strokeColor=none;strokeOpacity=100;rounded=1;absoluteArcSize=1;arcSize=12;fillColor=#e05243;dashed=1;fixDash=1;dashPattern=1 4;strokeWidth=0;lucidId=i7BbXRU1vmoD;" vertex="1" parent="1">
          <mxGeometry x="2055" y="750" width="87" height="90" as="geometry" />
        </mxCell>
        <mxCell id="mP72WiI3d0V7A2LHdzo0-17" value="S3 Bucket&#xa;EC2 User Data Script" style="html=1;overflow=block;blockSpacing=1;whiteSpace=wrap;fontSize=21.7;spacing=3.8;verticalAlign=middle;strokeOpacity=0;fillOpacity=0;rounded=1;absoluteArcSize=1;arcSize=12;fillColor=#000000;strokeWidth=NaN;lucidId=49BbuW0x8Ckw;" vertex="1" parent="1">
          <mxGeometry x="1980" y="810" width="255" height="127" as="geometry" />
        </mxCell>
        <mxCell id="mP72WiI3d0V7A2LHdzo0-18" value="" style="html=1;jettySize=18;whiteSpace=wrap;fontSize=13;strokeColor=#3a414a;strokeOpacity=100;dashed=1;fixDash=1;strokeWidth=2.3;rounded=1;arcSize=24;edgeStyle=orthogonalEdgeStyle;startArrow=none;endArrow=block;endFill=1;exitX=1.003;exitY=0.5;exitPerimeter=0;entryX=0.5;entryY=0;entryPerimeter=0;lucidId=__Bbuw5MobsD;" edge="1" parent="1" source="mP72WiI3d0V7A2LHdzo0-6" target="mP72WiI3d0V7A2LHdzo0-16">
          <mxGeometry width="100" height="100" relative="1" as="geometry">
            <Array as="points" />
          </mxGeometry>
        </mxCell>
        <mxCell id="mP72WiI3d0V7A2LHdzo0-19" value="   Fetch user data script " style="text;html=1;resizable=0;labelBackgroundColor=default;align=center;verticalAlign=middle;fontColor=#333333;fontSize=18.3;" vertex="1" parent="mP72WiI3d0V7A2LHdzo0-18">
          <mxGeometry x="-0.7296296296296296" relative="1" as="geometry">
            <mxPoint as="offset" />
          </mxGeometry>
        </mxCell>
      </root>
    </mxGraphModel>
  </diagram>
</mxfile>
